<svg width="800" height="800" viewBox="0 0 800 800" fill="none" xmlns="http://www.w3.org/2000/svg">
<path d="M425 300C425 286.193 413.807 275 400 275C386.193 275 375 286.193 375 300V375H300C286.193 375 275 386.193 275 400C275 413.807 286.193 425 300 425H375V500C375 513.807 386.193 525 400 525C413.807 525 425 513.807 425 500V425H500C513.807 425 525 413.807 525 400C525 386.193 513.807 375 500 375H425V300Z" fill="white"/>
<path fill-rule="evenodd" clip-rule="evenodd" d="M401.913 41.6666H398.087C321.141 41.6663 260.84 41.666 213.79 47.9916C165.632 54.4663 127.632 67.9776 97.8047 97.8046C67.9777 127.632 54.4663 165.632 47.9917 213.79C41.666 260.84 41.6663 321.141 41.6667 398.087V401.913C41.6663 478.86 41.666 539.16 47.9917 586.21C54.4663 634.367 67.9777 672.37 97.8047 702.197C127.632 732.023 165.632 745.533 213.79 752.01C260.84 758.333 321.141 758.333 398.087 758.333H401.913C478.86 758.333 539.16 758.333 586.21 752.01C634.367 745.533 672.37 732.023 702.197 702.197C732.023 672.37 745.533 634.367 752.01 586.21C758.333 539.16 758.333 478.86 758.333 401.913V398.087C758.333 321.141 758.333 260.84 752.01 213.79C745.533 165.632 732.023 127.632 702.197 97.8046C672.37 67.9776 634.367 54.4663 586.21 47.9916C539.16 41.666 478.86 41.6663 401.913 41.6666ZM133.16 133.16C152.148 114.171 177.839 103.275 220.453 97.5456C263.785 91.7196 320.726 91.6666 400 91.6666C479.273 91.6666 536.213 91.7196 579.547 97.5456C622.16 103.275 647.85 114.171 666.84 133.16C685.83 152.148 696.727 177.839 702.453 220.453C708.28 263.785 708.333 320.726 708.333 400C708.333 479.273 708.28 536.213 702.453 579.547C696.727 622.16 685.83 647.85 666.84 666.84C647.85 685.83 622.16 696.727 579.547 702.453C536.213 708.28 479.273 708.333 400 708.333C320.726 708.333 263.785 708.28 220.453 702.453C177.839 696.727 152.148 685.83 133.16 666.84C114.171 647.85 103.275 622.16 97.5457 579.547C91.7197 536.213 91.6667 479.273 91.6667 400C91.6667 320.726 91.7197 263.785 97.5457 220.453C103.275 177.839 114.171 152.148 133.16 133.16Z" fill="white"/>
</svg>
