<svg width="751" height="389" viewBox="0 0 751 389" fill="none" xmlns="http://www.w3.org/2000/svg">
<path fill-rule="evenodd" clip-rule="evenodd" d="M194.778 194.443C248.389 194.443 292 150.833 292 97.2223C292 43.611 248.389 0 194.778 0C141.167 0 97.5557 43.611 97.5557 97.2223C97.5557 150.833 141.167 194.443 194.778 194.443ZM667 311.11V227.777H750.333V172.223H667V88.8887H611.443V172.223H528.11V227.777H611.443V311.11H667ZM194.778 243.057C129.778 243.057 0.333344 275.557 0.333344 340.277V388.89H389.223V340.277C389.223 275.557 259.778 243.057 194.778 243.057ZM194.778 298.61C145.055 298.61 88.6667 317.223 65.3333 333.333H324.223C300.89 317.223 244.5 298.61 194.778 298.61ZM236.444 97.2223C236.444 74.1667 217.833 55.5557 194.778 55.5557C171.722 55.5557 153.111 74.1667 153.111 97.2223C153.111 120.278 171.722 138.89 194.778 138.89C217.833 138.89 236.444 120.278 236.444 97.2223ZM333.667 194.443C387.277 194.443 430.89 150.833 430.89 97.2223C430.89 43.611 387.277 0 333.667 0C327 0 320.333 0.555669 313.943 1.94434C335.057 28.0557 347.557 61.111 347.557 97.2223C347.557 133.333 334.5 166.11 313.39 192.223C320.057 193.61 326.723 194.443 333.667 194.443ZM444.777 340.277C444.777 302.5 425.89 273.057 398.11 250.557C460.333 263.61 528.11 293.333 528.11 340.277V388.89H444.777V340.277Z" fill="white"/>
</svg>
