<svg width="600" height="534" viewBox="0 0 600 534" fill="none" xmlns="http://www.w3.org/2000/svg">
<path fill-rule="evenodd" clip-rule="evenodd" d="M290.237 10.0964C303.253 23.114 303.253 44.2194 290.237 57.237L113.807 233.667H566.667C585.077 233.667 600 248.59 600 267C600 285.41 585.077 300.333 566.667 300.333H113.807L290.237 476.763C303.253 489.78 303.253 510.887 290.237 523.903C277.22 536.92 256.113 536.92 243.097 523.903L9.763 290.57C3.512 284.32 0 275.84 0 267C0 258.16 3.512 249.68 9.763 243.43L243.097 10.0964C256.113 -2.92096 277.22 -2.92096 290.237 10.0964Z" fill="white"/>
</svg>
