<svg width="800" height="800" viewBox="0 0 800 800" fill="none" xmlns="http://www.w3.org/2000/svg">
<path fill-rule="evenodd" clip-rule="evenodd" d="M400 650C370.8 650 342.6 646.6 315.5 640.825L197.8 711.575L199.375 595.6C109.15 541.35 50 451.65 50 350C50 184.325 206.7 50 400 50C593.3 50 750 184.325 750 350C750 515.7 593.3 650 400 650ZM400 0C179.1 0 0 156.725 0 350C0 460.475 58.625 558.85 150 622.975V800L325.225 693.675C349.475 697.675 374.425 700 400 700C620.9 700 800 543.3 800 350C800 156.725 620.9 0 400 0Z" fill="white"/>
</svg>
