<svg width="800" height="800" viewBox="0 0 800 800" fill="none" xmlns="http://www.w3.org/2000/svg">
<path d="M400 691.667C335.907 691.667 274.437 666.207 229.116 620.883C183.795 575.563 158.333 514.093 158.333 450C158.333 385.907 183.795 324.437 229.116 279.116C274.437 233.795 335.907 208.333 400 208.333H483.333C489.963 208.333 496.323 210.967 501.01 215.656C505.7 220.344 508.333 226.703 508.333 233.333C508.333 239.964 505.7 246.323 501.01 251.011C496.323 255.699 489.963 258.333 483.333 258.333H400C362.093 258.333 325.035 269.574 293.516 290.635C261.996 311.696 237.43 341.63 222.923 376.653C208.416 411.673 204.621 450.213 212.016 487.393C219.412 524.573 237.666 558.723 264.471 585.53C291.276 612.333 325.428 630.59 362.607 637.983C399.787 645.38 438.327 641.583 473.347 627.077C508.37 612.57 538.303 588.003 559.367 556.483C580.427 524.963 591.667 487.907 591.667 450C591.667 443.37 594.3 437.01 598.99 432.323C603.677 427.633 610.037 425 616.667 425C623.297 425 629.657 427.633 634.343 432.323C639.033 437.01 641.667 443.37 641.667 450C641.58 514.067 616.09 575.483 570.787 620.787C525.483 666.09 464.067 691.58 400 691.667Z" fill="white"/>
<path d="M400 358.333C396.717 358.35 393.46 357.71 390.427 356.45C387.393 355.19 384.64 353.337 382.333 351C377.653 346.313 375.023 339.96 375.023 333.333C375.023 326.709 377.653 320.355 382.333 315.668L464.667 233.334L382.333 151.001C379.877 148.712 377.907 145.952 376.54 142.886C375.173 139.819 374.44 136.509 374.38 133.152C374.32 129.795 374.94 126.461 376.197 123.348C377.453 120.235 379.323 117.407 381.7 115.033C384.073 112.659 386.9 110.788 390.013 109.53C393.127 108.273 396.46 107.655 399.817 107.715C403.173 107.774 406.483 108.509 409.55 109.875C412.617 111.241 415.377 113.211 417.667 115.668L517.667 215.668C522.35 220.355 524.977 226.709 524.977 233.334C524.977 239.959 522.35 246.314 517.667 251.001L417.667 351C415.36 353.337 412.607 355.19 409.573 356.45C406.54 357.71 403.283 358.35 400 358.333Z" fill="white"/>
</svg>
