<svg width="764" height="764" viewBox="0 0 764 764" fill="none" xmlns="http://www.w3.org/2000/svg">
<path d="M759.075 396.725C761.7 392.55 763.25 387.45 763.25 382C763.25 376.55 761.7 371.475 759 367.175L759.075 367.3C758.325 366.025 757.6 364.95 756.8 363.925L756.85 364C754.35 360.575 751.275 357.725 747.7 355.6L747.55 355.525C746.925 355.15 746.625 354.4 745.95 354.075L45.95 4.07503C41.875 2.00003 37.075 0.775024 32 0.775024C14.725 0.775024 0.75 14.775 0.75 32.025C0.75 36.475 1.675 40.7 3.35 44.525L3.275 44.325L148 382.025L3.275 719.725C1.675 723.35 0.75 727.575 0.75 732.025C0.75 749.275 14.75 763.275 32 763.275C32.025 763.275 32.075 763.275 32.1 763.275C37.175 763.275 41.95 762.05 46.175 759.875L46 759.95L746 409.975C746.675 409.65 746.95 408.9 747.6 408.525C751.3 406.325 754.4 403.475 756.825 400.125L756.875 400.025C757.625 399.075 758.375 397.975 759.025 396.85L759.1 396.7L759.075 396.725ZM94.325 98.125L599.625 350.75H202.625L94.325 98.125ZM202.625 413.25H599.625L94.325 665.875L202.625 413.25Z" fill="white"/>
</svg>
