<svg width="600" height="668" viewBox="0 0 600 668" fill="none" xmlns="http://www.w3.org/2000/svg">
<path d="M33.3333 134H566.667M433.333 134L424.313 106.936C415.57 80.7083 411.197 67.5947 403.09 57.8993C395.93 49.3377 386.737 42.7107 376.35 38.626C364.587 34 350.767 34 323.12 34H276.88C249.233 34 235.413 34 223.65 38.626C213.264 42.7107 204.069 49.3377 196.91 57.8993C188.802 67.5947 184.431 80.7083 175.688 106.936L166.667 134M500 134V474C500 530.007 500 558.007 489.1 579.4C479.513 598.217 464.217 613.513 445.4 623.1C424.007 634 396.007 634 340 634H260C203.995 634 175.992 634 154.601 623.1C135.785 613.513 120.487 598.217 110.899 579.4C100 558.007 100 530.007 100 474V134M366.667 267.333V500.667M233.333 267.333V500.667" stroke="white" stroke-width="66.6667" stroke-linecap="round" stroke-linejoin="round"/>
</svg>
